<svg xmlns="http://www.w3.org/2000/svg" aria-hidden="true" style="position:absolute;width:0;height:0;overflow:hidden">
  <defs>
    <symbol id="icon-astronaut" viewBox="0 0 32 32">
      <path fill="#fcfcfd" d="M-.25-.25h32v4.5c-1.61-.221-2.777-1.054-3.5-2.5a3.86 3.86 0 0 0-1.5 1.75c-2.48.014-2.896.764-1.25 2.25.096 1.038.346 2.038.75 3 1.167-1.333 2.333-1.333 3.5 0 .404-.962.654-1.962.75-3 .354-.44.771-.774 1.25-1v27h-32v-14a5.912 5.912 0 0 0 1.75 1c1.674-.97 3.424-1.553 5.25-1.75a44.23 44.23 0 0 0-6.5 7.25c.138 1.054.721 1.721 1.75 2a12.7 12.7 0 0 0 3.25-2.75c.567-.375 1.067-.291 1.5.25a32.15 32.15 0 0 1-3.25 3.5c-.467 2.292.45 3.042 2.75 2.25a212.133 212.133 0 0 0 9.5-10c4.068.529 7.068-1.054 9-4.75-.226-.906-.809-1.406-1.75-1.5a13.245 13.245 0 0 0-3.75 2.25c-.5.333-1 .333-1.5 0 4.79-3.713 5.123-7.713 1-12C15.161 1.521 11.911 1.938 9 4.75c-1.526 2.558-1.61 5.142-.25 7.75a26.558 26.558 0 0 0-9 3.25v-16z" style="fill:var(--color1, #fcfcfd)"/>
      <path fill="#5c65e7" d="M31.75 4.25v.5c-.479.226-.896.56-1.25 1a10.107 10.107 0 0 1-.75 3c-1.167-1.333-2.333-1.333-3.5 0a10.107 10.107 0 0 1-.75-3c-1.646-1.486-1.23-2.236 1.25-2.25a3.86 3.86 0 0 1 1.5-1.75c.723 1.446 1.89 2.279 3.5 2.5z" style="fill:var(--color2, #5c65e7)"/>
      <path fill="#edeefc" d="M27.75 3.75a8.28 8.28 0 0 0 2 1.25A7.647 7.647 0 0 0 29 7.25c-.667-.667-1.333-.667-2 0A7.647 7.647 0 0 0 26.25 5c.721-.188 1.221-.605 1.5-1.25z" style="fill:var(--color3, #edeefc)"/>
      <path fill="#a6aaf1" d="M4.25 5.75c2.8.722 3.05 1.888.75 3.5-.75-.417-1.333-1-1.75-1.75a5.01 5.01 0 0 0 1-1.75z" style="fill:var(--color4, #a6aaf1)"/>
      <path fill="#404153" d="M-.25 17.75v-2a26.558 26.558 0 0 1 9-3.25C7.39 9.892 7.474 7.308 9 4.75c2.911-2.812 6.161-3.229 9.75-1.25 4.123 4.287 3.79 8.287-1 12 .5.333 1 .333 1.5 0A13.245 13.245 0 0 1 23 13.25c.941.094 1.524.594 1.75 1.5-1.932 3.696-4.932 5.279-9 4.75a212.133 212.133 0 0 1-9.5 10c-2.3.792-3.217.042-2.75-2.25a32.15 32.15 0 0 0 3.25-3.5c-.433-.541-.933-.625-1.5-.25A12.7 12.7 0 0 1 2 26.25c-1.029-.279-1.612-.946-1.75-2A44.23 44.23 0 0 1 6.75 17c-1.826.197-3.576.78-5.25 1.75a5.912 5.912 0 0 1-1.75-1z" style="fill:var(--color5, #404153)"/>
      <path fill="#e3e3e6" d="M13.25 9.25c1.729.084 1.895.584.5 1.5-.443-.412-.61-.912-.5-1.5z" style="fill:var(--color6, #e3e3e6)"/>
      <path fill="#e8e8ea" d="M16.25 3.75c1.381.122 2.465.789 3.25 2a12.28 12.28 0 0 1 .75 5.5c-4.859-.549-6.192-3.049-4-7.5z" style="fill:var(--color7, #e8e8ea)"/>
      <path fill="#3a3b4d" d="M16.75 5.75c1.244-.709 2.077-.292 2.5 1.25l-.5.75a5.742 5.742 0 0 0-2-2z" style="fill:var(--color8, #3a3b4d)"/>
      <path fill="#f5f5f6" d="M12.75 3.25a3.554 3.554 0 0 1 2.5.5c-.332 2.026-1.248 3.693-2.75 5-.533 3.03.467 3.697 3 2a54.148 54.148 0 0 1 3.75 2c-1.98 1.863-4.313 2.446-7 1.75C9.046 12.839 7.963 10.255 9 6.75c.871-1.623 2.121-2.789 3.75-3.5z" style="fill:var(--color9, #f5f5f6)"/>
      <path fill="#d5d5d9" d="M22.25 14.25h1.5c-.136 2.157-.803 2.407-2 .75.278-.191.445-.441.5-.75z" style="fill:var(--color10, #d5d5d9)"/>
      <path fill="#eeeff0" d="M4.75 14.25c.684.796.517 1.463-.5 2l-.5-.75a4.35 4.35 0 0 1 1-1.25z" style="fill:var(--color11, #eeeff0)"/>
      <path fill="#e3e3e6" d="M6.25 13.75c2.16-.35 3.993.233 5.5 1.75 2.409.109 4.742.526 7 1.25a2.428 2.428 0 0 1-.5 2c-.966-.51-1.966-.593-3-.25a60.52 60.52 0 0 0-4.5 4.75 2745.27 2745.27 0 0 0-4.5-4 27.565 27.565 0 0 1 3-3.25 9.21 9.21 0 0 0-3-.25v-2z" style="fill:var(--color6, #e3e3e6)"/>
      <path fill="#dadade" d="M1.75 15.75c1.271.561 1.271 1.228 0 2-1.312-.682-1.312-1.349 0-2z" style="fill:var(--color12, #dadade)"/>
      <path fill="#3e3f51" d="M10.25 16.25c3.683 1.356 3.85 3.023.5 5-1-.667-1.833-1.5-2.5-2.5.678-.843 1.345-1.676 2-2.5z" style="fill:var(--color13, #3e3f51)"/>
      <path fill="#e1e1e4" d="M20.25 15.75c1.957.804 1.874 1.638-.25 2.5-.32-.883-.237-1.716.25-2.5z" style="fill:var(--color14, #e1e1e4)"/>
      <path fill="#f3f3f4" d="M10.25 17.75h1.5c-.037 2.021-.704 2.354-2 1 .181-.342.348-.675.5-1z" style="fill:var(--color15, #f3f3f4)"/>
      <path fill="#d6d6da" d="M4.75 20.25c2.077.735 3.743 2.069 5 4-.667 1-1.5 1.833-2.5 2.5a2.231 2.231 0 0 1-1-.75l2-2L6 21.75a6.942 6.942 0 0 1-2 1.5 2.231 2.231 0 0 1-.75-1c.512-.676 1.012-1.343 1.5-2z" style="fill:var(--color16, #d6d6da)"/>
      <path fill="#5c67e6" d="M25.75 21.25h-1c.333-1.333.667-1.333 1 0z" style="fill:var(--color17, #5c67e6)"/>
      <path fill="#e8eafb" d="M24.75 21.25h1v1h-1v-1z" style="fill:var(--color18, #e8eafb)"/>
      <path fill="#5560e7" d="M24.75 21.25v1c-1.333-.333-1.333-.667 0-1z" style="fill:var(--color19, #5560e7)"/>
      <path fill="#6c76ea" d="M25.75 21.25c1.333.333 1.333.667 0 1v-1z" style="fill:var(--color20, #6c76ea)"/>
      <path fill="#797eeb" d="M24.75 22.25h1c-.333 2-.667 2-1 0z" style="fill:var(--color21, #797eeb)"/>
      <path fill="#cfd0d4" d="M1.75 23.25c1.904.469 1.904 1.136 0 2-.563-.654-.563-1.321 0-2z" style="fill:var(--color22, #cfd0d4)"/>
      <path fill="#7d82ec" d="M15.75 25.25h-1c.333-1.333.667-1.333 1 0z" style="fill:var(--color23, #7d82ec)"/>
      <path fill="#7b83ec" d="M14.75 25.25v1c-1.333-.333-1.333-.667 0-1z" style="fill:var(--color24, #7b83ec)"/>
      <path fill="#e1e2fa" d="M14.75 25.25h1v1h-1v-1z" style="fill:var(--color25, #e1e2fa)"/>
      <path fill="#6c76e9" d="M15.75 25.25c1.333.333 1.333.667 0 1v-1z" style="fill:var(--color26, #6c76e9)"/>
      <path fill="#5b67e6" d="M14.75 26.25h1c-.333 1.333-.667 1.333-1 0z" style="fill:var(--color27, #5b67e6)"/>
      <path fill="#6771e7" d="M22.25 27.25h-1c.333-1.333.667-1.333 1 0z" style="fill:var(--color28, #6771e7)"/>
      <path fill="#d2d2d6" d="M5.25 26.75c1.359.794 1.276 1.461-.25 2l-.75-.5c.346-.509.68-1.009 1-1.5z" style="fill:var(--color29, #d2d2d6)"/>
      <path fill="#e0e2fa" d="M21.25 27.25h1v1h-1v-1z" style="fill:var(--color30, #e0e2fa)"/>
      <path fill="#5c67e8" d="M22.25 27.25c1.333.333 1.333.667 0 1v-1z" style="fill:var(--color31, #5c67e8)"/>
      <path fill="#7c82eb" d="M21.25 27.25v1c-1.333-.333-1.333-.667 0-1z" style="fill:var(--color32, #7c82eb)"/>
      <path fill="#6d75e9" d="M21.25 28.25h1c-.333 1.333-.667 1.333-1 0z" style="fill:var(--color33, #6d75e9)"/>
    </symbol>
    <symbol id="icon-clock" viewBox="0 0 32 32">
      <path fill="#fbfbfb" d="M-.25-.25h12.5C.951 4.56-2.132 12.56 3 23.75c2.131 2.885 4.881 4.885 8.25 6a169.632 169.632 0 0 0 4.25-12c3.204-2.21 2.954-3.793-.75-4.75l-4.5-4.5c-.568-.375-1.067-.291-1.5.25a67.03 67.03 0 0 0 4.75 5 46.34 46.34 0 0 1 .75 3.25 129.484 129.484 0 0 0-3 10.75c-4.387-.966-7.303-3.633-8.75-8C.613 6.804 6.196.721 19.25 1.5c7.922 2.75 11.338 8.334 10.25 16.75-1.17 4.35-3.753 7.517-7.75 9.5a2.428 2.428 0 0 1-.5-2 2.467 2.467 0 0 0-1.5.25 8.84 8.84 0 0 0-3.5 3.5 17.337 17.337 0 0 0 4.5 2.25h-21v-32z" style="fill:var(--color34, #fbfbfb)"/>
      <path fill="#414254" d="M12.25-.25h6C28.79 2.994 32.707 9.994 30 20.75c-1.82 3.736-4.57 6.57-8.25 8.5.405.785.571 1.619.5 2.5h-1.5a17.337 17.337 0 0 1-4.5-2.25 8.84 8.84 0 0 1 3.5-3.5 2.467 2.467 0 0 1 1.5-.25 2.428 2.428 0 0 0 .5 2c3.997-1.983 6.58-5.15 7.75-9.5 1.088-8.416-2.328-14-10.25-16.75C6.196.721.613 6.804 2.5 19.75c1.447 4.367 4.363 7.034 8.75 8 .841-3.61 1.841-7.194 3-10.75a46.34 46.34 0 0 0-.75-3.25 67.03 67.03 0 0 1-4.75-5c.432-.541.932-.625 1.5-.25l4.5 4.5c3.704.957 3.954 2.54.75 4.75a169.632 169.632 0 0 1-4.25 12c-3.369-1.115-6.119-3.115-8.25-6-5.132-11.19-2.049-19.19 9.25-24z" style="fill:var(--color35, #414254)"/>
      <path fill="#fafafb" d="M18.25-.25h13.5v32h-9.5a4.553 4.553 0 0 0-.5-2.5c3.68-1.93 6.43-4.764 8.25-8.5 2.707-10.756-1.21-17.756-11.75-21z" style="fill:var(--color36, #fafafb)"/>
      <path fill="#5661e7" d="M15.25 2.25c.575.146.908.562 1 1.25l-.5 1.25a3.554 3.554 0 0 1-.5-2.5z" style="fill:var(--color37, #5661e7)"/>
      <path fill="#676ee9" d="M3.25 14.25h2v1.5h-2v-1.5z" style="fill:var(--color38, #676ee9)"/>
      <path fill="#686fe8" d="M26.25 14.25h2v1.5h-2v-1.5z" style="fill:var(--color39, #686fe8)"/>
      <path fill="#dbdbdf" d="M15.25 14.75c.919.07 1.085.403.5 1-.399-.228-.565-.562-.5-1z" style="fill:var(--color40, #dbdbdf)"/>
      <path fill="#f5f5f6" d="M19.25 27.75c.838.342 1.172 1.008 1 2-2.04-.017-2.373-.684-1-2z" style="fill:var(--color9, #f5f5f6)"/>
    </symbol>
    <symbol id="icon-diagram" viewBox="0 0 32 32">
      <path fill="#fbfafb" d="M-.25-.25h32v4.5c-2.08-1.016-3.246-.349-3.5 2a7.472 7.472 0 0 0-1.75 1.5 7.647 7.647 0 0 0-.75-2.25 264.89 264.89 0 0 0-23 0L2 6.25a272.617 272.617 0 0 0-.25 16.5 3.457 3.457 0 0 0-2 .5V-.25z" style="fill:var(--color41, #fbfafb)"/>
      <path fill="#3c3d50" d="M31.75 4.25v1.5c-2.156.489-3.906 1.655-5.25 3.5-.25 4.497-.333 8.997-.25 13.5.945-.102 1.695.232 2.25 1 .489 1.585.239 3.001-.75 4.25-9 .333-18 .333-27 0a2.144 2.144 0 0 0-1-.75v-4a3.457 3.457 0 0 1 2-.5c-.083-5.503 0-11.002.25-16.5l.75-.75a264.89 264.89 0 0 1 23 0c.363.699.613 1.449.75 2.25a7.472 7.472 0 0 1 1.75-1.5c.254-2.349 1.42-3.016 3.5-2z" style="fill:var(--color42, #3c3d50)"/>
      <path fill="#c6c7cc" d="M29.75 4.75c.919.07 1.085.403.5 1-.399-.228-.565-.562-.5-1z" style="fill:var(--color43, #c6c7cc)"/>
      <path fill="#eaeaec" d="M2.75 6.25h22.5c.176 1.286-.074 2.453-.75 3.5a6.464 6.464 0 0 1-.25-2.5h-20v14.5h20a41.882 41.882 0 0 1 .75-11c.25 3.997.333 7.997.25 12H2.75V6.25z" style="fill:var(--color44, #eaeaec)"/>
      <path fill="#fcfcfc" d="M31.75 5.75v26h-32v-4.5c.395.141.728.391 1 .75 9 .333 18 .333 27 0 .989-1.249 1.239-2.665.75-4.25-.555-.768-1.305-1.102-2.25-1-.083-4.503 0-9.003.25-13.5 1.344-1.845 3.094-3.011 5.25-3.5z" style="fill:var(--color45, #fcfcfc)"/>
      <path fill="#f7f7f8" d="M5.25 8.25h18c.242 2.521-.758 4.438-3 5.75-.5.333-1 .333-1.5 0a24.135 24.135 0 0 0-3.5-2.25 28.67 28.67 0 0 0-4.5 4.5 46.715 46.715 0 0 0-3-2.5c-1.509.44-1.842 1.357-1 2.75 1.472-.405 2.805-.155 4 .75a28.67 28.67 0 0 0 4.5-4.5 62.019 62.019 0 0 0 4.25 3c1.15-.996 2.317-1.996 3.5-3 .25 2.494.333 4.994.25 7.5h-18v-12z" style="fill:var(--color46, #f7f7f8)"/>
      <path fill="#e4e5e7" d="M7.25 14.75c.918.07 1.085.403.5 1-.399-.228-.565-.562-.5-1z" style="fill:var(--color47, #e4e5e7)"/>
      <path fill="#4d5ae5" d="M14.75 14.75c.632.507.966 1.257 1 2.25l-.5 2.25a10.556 10.556 0 0 1-.5-4.5z" style="fill:var(--color48, #4d5ae5)"/>
      <path fill="#979cef" d="M18.75 16.75h1.5v3h-1.5v-3z" style="fill:var(--color49, #979cef)"/>
      <path fill="#7175e9" d="M7.25 17.75c.543.06.876.393 1 1l-.5 1a2.428 2.428 0 0 1-.5-2z" style="fill:var(--color50, #7175e9)"/>
      <path fill="#a8adf2" d="M10.25 18.25h1.5v1.5h-1.5v-1.5z" style="fill:var(--color51, #a8adf2)"/>
      <path fill="#a0a0a9" d="M5.25 8.25v12h18c-6.078.498-12.244.664-18.5.5a78.471 78.471 0 0 1 .5-12.5z" style="fill:var(--color52, #a0a0a9)"/>
      <path fill="#ebebed" d="M.75 23.75h9.5c-.11.587.057 1.087.5 1.5 2.139.553 4.305.636 6.5.25a2.197 2.197 0 0 0 .5-1.75h9.5v3.5c-8.668.083-17.335 0-26-.25a6.097 6.097 0 0 1-.5-3.25z" style="fill:var(--color53, #ebebed)"/>
      <path fill="#fefefe" d="M11.75 23.75a12.93 12.93 0 0 1 5 .5l-2.5.5c-1.07-.028-1.903-.361-2.5-1z" style="fill:var(--color54, #fefefe)"/>
    </symbol>
    <symbol id="icon-facebook" viewBox="0 0 32 32">
      <path d="M21.329 5.313h2.921V.225C23.746.156 22.013 0 19.994 0c-4.212 0-7.097 2.649-7.097 7.519V12H8.249v5.688h4.648V32h5.699V17.689h4.46l.708-5.688h-5.169V8.082c.001-1.644.444-2.769 2.735-2.769z"/>
    </symbol>
    <symbol id="icon-Group" viewBox="0 0 30 32">
      <path fill="#fdfdfd" d="M-.25-.25h7c-.488.657-.988 1.324-1.5 2 .238.489.572.905 1 1.25C3.129 9.238 3.879 14.988 8.5 20.25c.25 2.327.333 4.661.25 7-2.339-.083-4.673 0-7 .25a8.28 8.28 0 0 0-2 1.25v-29z" style="fill:var(--color55, #fdfdfd)"/>
      <path fill="#fcfcfc" d="M7.75-.25h22v22a185.296 185.296 0 0 1-8.25-8 15.18 15.18 0 0 1 .25-5c2.497.085 3.414-1.081 2.75-3.5-2.56-1.096-3.81-.263-3.75 2.5a30.466 30.466 0 0 1-5.5-.25 163.154 163.154 0 0 1-7.5-7.75z" style="fill:var(--color45, #fcfcfc)"/>
      <path fill="#414153" d="M6.75-.25h1a163.154 163.154 0 0 0 7.5 7.75c1.826.249 3.659.333 5.5.25-.06-2.763 1.19-3.596 3.75-2.5.664 2.419-.253 3.585-2.75 3.5a15.18 15.18 0 0 0-.25 5 185.296 185.296 0 0 0 8.25 8v1c-.657.488-1.324.988-2 1.5l-1.5-1a11.989 11.989 0 0 1-4.5 1.5h-5.5v3h7.5c1.336.946 1.836 2.279 1.5 4H-.25v-3a8.28 8.28 0 0 1 2-1.25 49.142 49.142 0 0 1 7-.25c.083-2.339 0-4.673-.25-7C3.879 14.988 3.129 9.238 6.25 3a3.629 3.629 0 0 1-1-1.25c.512-.676 1.012-1.343 1.5-2z" style="fill:var(--color56, #414153)"/>
      <path fill="#e5e6e8" d="M20.25 9.75c.272.03.438.197.5.5a14.442 14.442 0 0 0-.75 2c-.901-.886-.818-1.72.25-2.5z" style="fill:var(--color57, #e5e6e8)"/>
      <path fill="#e5e5e7" d="M16.75 9.25c.894-.561 1.894-.645 3-.25-.919 1.551-1.919 1.634-3 .25z" style="fill:var(--color58, #e5e5e7)"/>
      <path fill="#e3e3e6" d="M21.75 5.75h2v2h-2v-2z" style="fill:var(--color6, #e3e3e6)"/>
      <path fill="#fbfbfb" d="M6.75 4.25a234.926 234.926 0 0 1 18.5 18c-.44.735-1.107 1.152-2 1.25-2.327.25-4.661.333-7 .25.197-5.565-2.136-7.065-7-4.5-2.61-2.589-3.777-5.756-3.5-9.5a12.828 12.828 0 0 1 1-5.5z" style="fill:var(--color34, #fbfbfb)"/>
      <path fill="#ecedee" d="M6.75 1.25a318.739 318.739 0 0 1 21.5 21c-.251.511-.584.594-1 .25A408.663 408.663 0 0 1 6.75 1.25z" style="fill:var(--color59, #ecedee)"/>
      <path fill="#eeeef4" d="M10.75 19.25c1.593-.24 3.009.093 4.25 1 .249 1.658.332 3.325.25 5h-5.5c-.21-2.121.123-4.121 1-6z" style="fill:var(--color60, #eeeef4)"/>
      <path fill="#5c66e7" d="M11.75 20.25c2.201-.303 2.868.53 2 2.5-2.384.699-3.05-.134-2-2.5z" style="fill:var(--color61, #5c66e7)"/>
      <path fill="#cfd0f7" d="M12.25 21.25c.918.07 1.085.403.5 1-.399-.228-.565-.562-.5-1z" style="fill:var(--color62, #cfd0f7)"/>
      <path fill="#fbfbfb" d="M29.75 22.75v9h-4.5c.336-1.721-.164-3.054-1.5-4-2.235-.493-4.568-.66-7-.5v-2c1.771.156 3.438-.01 5-.5a11.989 11.989 0 0 0 4.5-1.5l1.5 1c.676-.512 1.343-1.012 2-1.5z" style="fill:var(--color34, #fbfbfb)"/>
      <path fill="#b2b2ba" d="M9.75 26.25h5.5v1.5h-5.5v-1.5z" style="fill:var(--color63, #b2b2ba)"/>
      <path fill="#9d9da6" d="M21.75 24.75c-1.562.49-3.229.656-5 .5v2c2.432-.16 4.765.007 7 .5h-7.5v-3h5.5z" style="fill:var(--color64, #9d9da6)"/>
      <path fill="#f8f8f9" d="M1.25 28.75c7.502-.083 15.002 0 22.5.25.418.506.585 1.089.5 1.75H.75a3.457 3.457 0 0 1 .5-2z" style="fill:var(--color65, #f8f8f9)"/>
    </symbol>
    <symbol id="icon-instagram" viewBox="0 0 32 32">
      <path d="M31.969 9.408c-.075-1.7-.35-2.869-.744-3.882a7.803 7.803 0 0 0-1.85-2.838A7.867 7.867 0 0 0 26.543.844C25.524.45 24.361.175 22.661.1 20.948.019 20.404 0 16.06 0s-4.888.019-6.595.094c-1.7.075-2.869.35-3.882.744a7.803 7.803 0 0 0-2.838 1.85A7.867 7.867 0 0 0 .901 5.52C.507 6.539.232 7.702.157 9.402c-.081 1.713-.1 2.257-.1 6.601s.019 4.888.094 6.595c.075 1.7.35 2.869.744 3.882a7.895 7.895 0 0 0 1.85 2.838 7.867 7.867 0 0 0 2.832 1.844c1.019.394 2.182.669 3.882.744 1.706.075 2.25.094 6.595.094s4.888-.019 6.595-.094c1.7-.075 2.869-.35 3.882-.744a8.181 8.181 0 0 0 4.682-4.682c.394-1.019.669-2.182.744-3.882.075-1.707.094-2.25.094-6.595s-.006-4.888-.081-6.595zm-2.882 13.065c-.069 1.563-.331 2.407-.55 2.969a5.31 5.31 0 0 1-3.038 3.038c-.563.219-1.413.481-2.969.55-1.688.075-2.194.094-6.464.094s-4.782-.019-6.464-.094c-1.563-.069-2.407-.331-2.969-.55a4.926 4.926 0 0 1-1.838-1.194 4.974 4.974 0 0 1-1.194-1.838c-.219-.563-.481-1.413-.55-2.969-.075-1.688-.094-2.194-.094-6.464s.019-4.782.094-6.464c.069-1.563.331-2.407.55-2.969a4.868 4.868 0 0 1 1.2-1.838A4.974 4.974 0 0 1 6.639 3.55c.563-.219 1.413-.481 2.969-.55 1.688-.075 2.194-.094 6.464-.094 4.276 0 4.782.019 6.464.094 1.563.069 2.407.331 2.969.55a4.914 4.914 0 0 1 1.838 1.194 4.974 4.974 0 0 1 1.194 1.838c.219.563.481 1.413.55 2.969.075 1.688.094 2.194.094 6.464s-.019 4.77-.094 6.458z"/>
      <path d="M16.059 7.783c-4.538 0-8.22 3.682-8.22 8.22s3.682 8.22 8.22 8.22 8.22-3.682 8.22-8.22-3.682-8.22-8.22-8.22zm0 13.552a5.333 5.333 0 0 1 0-10.664 5.333 5.333 0 0 1 0 10.664zM26.524 7.458a1.919 1.919 0 1 1-3.838 0 1.919 1.919 0 0 1 3.838 0z"/>
    </symbol>
    <symbol id="icon-linkedin" viewBox="0 0 32 32">
      <path d="M31.992 32v-.001H32V20.263c0-5.741-1.236-10.164-7.948-10.164-3.227 0-5.392 1.771-6.276 3.449h-.093v-2.913h-6.364v21.364h6.627V21.42c0-2.785.528-5.479 3.977-5.479 3.399 0 3.449 3.179 3.449 5.657v10.401h6.62zM.528 10.636h6.635V32H.528V10.636zM3.843 0C1.722 0 0 1.721 0 3.843s1.721 3.879 3.843 3.879c2.121 0 3.843-1.757 3.843-3.879A3.846 3.846 0 0 0 3.843 0z"/>
    </symbol>
    <symbol id="icon-twitter" viewBox="0 0 32 32">
      <path d="M32 6.078c-1.19.522-2.458.868-3.78 1.036a6.523 6.523 0 0 0 2.886-3.626 13.11 13.11 0 0 1-4.16 1.588A6.574 6.574 0 0 0 22.154 3c-3.632 0-6.556 2.948-6.556 6.562 0 .52.044 1.02.152 1.496-5.454-.266-10.28-2.88-13.522-6.862a6.605 6.605 0 0 0-.898 3.316 6.57 6.57 0 0 0 2.914 5.452 6.479 6.479 0 0 1-2.964-.808v.072c0 3.188 2.274 5.836 5.256 6.446a6.548 6.548 0 0 1-1.72.216 5.8 5.8 0 0 1-1.242-.112c.85 2.598 3.262 4.508 6.13 4.57a13.182 13.182 0 0 1-8.134 2.798c-.538 0-1.054-.024-1.57-.09A18.469 18.469 0 0 0 10.064 29c12.072 0 18.672-10 18.672-18.668 0-.29-.01-.57-.024-.848A13.087 13.087 0 0 0 32 6.078z"/>
    </symbol>
<symbol id="icon-burg" viewBox="0 0 32 32">
<path d="M4.799 8.001c0-0.424 0.169-0.831 0.469-1.131s0.707-0.469 1.131-0.469h19.2c0.424 0 0.831 0.169 1.131 0.469s0.469 0.707 0.469 1.131-0.169 0.831-0.469 1.131c-0.3 0.3-0.707 0.469-1.131 0.469h-19.2c-0.424 0-0.831-0.169-1.131-0.469s-0.469-0.707-0.469-1.131z"></path>
<path d="M4.799 16.001c0-0.424 0.169-0.831 0.469-1.131s0.707-0.469 1.131-0.469h19.2c0.424 0 0.831 0.169 1.131 0.469s0.469 0.707 0.469 1.131c0 0.424-0.169 0.831-0.469 1.131s-0.707 0.469-1.131 0.469h-19.2c-0.424 0-0.831-0.169-1.131-0.469s-0.469-0.707-0.469-1.131z"></path>
<path d="M4.799 24.001c0-0.424 0.169-0.831 0.469-1.131s0.707-0.469 1.131-0.469h19.2c0.424 0 0.831 0.169 1.131 0.469s0.469 0.707 0.469 1.131c0 0.424-0.169 0.831-0.469 1.131s-0.707 0.469-1.131 0.469h-19.2c-0.424 0-0.831-0.169-1.131-0.469s-0.469-0.707-0.469-1.131z"></path>
</symbol>
  </defs>
</svg>
